<mxfile host="app.diagrams.net" agent="Mozilla/5.0 (Windows NT 10.0; Win64; x64) AppleWebKit/537.36 (KHTML, like Gecko) Chrome/127.0.0.0 Safari/537.36 Edg/127.0.0.0" version="24.7.6">
  <diagram name="Page-1" id="EL7qZxWe9_W_JzGc5hCF">
    <mxGraphModel dx="1282" dy="585" grid="1" gridSize="10" guides="1" tooltips="1" connect="1" arrows="1" fold="1" page="1" pageScale="1" pageWidth="827" pageHeight="1169" math="0" shadow="0">
      <root>
        <mxCell id="0" />
        <mxCell id="1" parent="0" />
        <mxCell id="UpJQDBjiTnYH3TPRTOtN-2" value="Fiche&lt;div&gt;budget&lt;/div&gt;" style="shape=note;whiteSpace=wrap;html=1;backgroundOutline=1;darkOpacity=0.05;" vertex="1" parent="1">
          <mxGeometry x="10" y="65" width="90" height="110" as="geometry" />
        </mxCell>
        <mxCell id="UpJQDBjiTnYH3TPRTOtN-3" value="Supérieur à 10k ?" style="rhombus;whiteSpace=wrap;html=1;" vertex="1" parent="1">
          <mxGeometry x="160" y="80" width="130" height="80" as="geometry" />
        </mxCell>
        <mxCell id="UpJQDBjiTnYH3TPRTOtN-29" style="edgeStyle=orthogonalEdgeStyle;rounded=0;orthogonalLoop=1;jettySize=auto;html=1;" edge="1" parent="1" source="UpJQDBjiTnYH3TPRTOtN-4">
          <mxGeometry relative="1" as="geometry">
            <mxPoint x="320" y="120" as="targetPoint" />
          </mxGeometry>
        </mxCell>
        <mxCell id="UpJQDBjiTnYH3TPRTOtN-4" value="Autre validation&lt;div&gt;requise ?&lt;/div&gt;" style="rhombus;whiteSpace=wrap;html=1;" vertex="1" parent="1">
          <mxGeometry x="160" y="210" width="130" height="80" as="geometry" />
        </mxCell>
        <mxCell id="UpJQDBjiTnYH3TPRTOtN-5" value="Proposition&lt;div&gt;client&lt;/div&gt;&lt;div&gt;statut = en attente de décision&lt;/div&gt;" style="ellipse;whiteSpace=wrap;html=1;aspect=fixed;" vertex="1" parent="1">
          <mxGeometry x="180" y="330" width="90" height="90" as="geometry" />
        </mxCell>
        <mxCell id="UpJQDBjiTnYH3TPRTOtN-31" style="edgeStyle=orthogonalEdgeStyle;rounded=0;orthogonalLoop=1;jettySize=auto;html=1;entryX=0;entryY=0.5;entryDx=0;entryDy=0;" edge="1" parent="1" source="UpJQDBjiTnYH3TPRTOtN-6" target="UpJQDBjiTnYH3TPRTOtN-13">
          <mxGeometry relative="1" as="geometry">
            <Array as="points">
              <mxPoint x="350" y="520" />
              <mxPoint x="350" y="405" />
            </Array>
          </mxGeometry>
        </mxCell>
        <mxCell id="UpJQDBjiTnYH3TPRTOtN-6" value="Accord client ?" style="rhombus;whiteSpace=wrap;html=1;" vertex="1" parent="1">
          <mxGeometry x="160" y="480" width="130" height="80" as="geometry" />
        </mxCell>
        <mxCell id="UpJQDBjiTnYH3TPRTOtN-7" value="Adapter&lt;div&gt;l&#39;offre&lt;/div&gt;" style="ellipse;whiteSpace=wrap;html=1;aspect=fixed;" vertex="1" parent="1">
          <mxGeometry x="60" y="555" width="90" height="90" as="geometry" />
        </mxCell>
        <mxCell id="UpJQDBjiTnYH3TPRTOtN-30" style="edgeStyle=orthogonalEdgeStyle;rounded=0;orthogonalLoop=1;jettySize=auto;html=1;exitX=1;exitY=0.5;exitDx=0;exitDy=0;entryX=1;entryY=0.5;entryDx=0;entryDy=0;" edge="1" parent="1" source="UpJQDBjiTnYH3TPRTOtN-8" target="UpJQDBjiTnYH3TPRTOtN-5">
          <mxGeometry relative="1" as="geometry">
            <Array as="points">
              <mxPoint x="480" y="120" />
              <mxPoint x="480" y="375" />
            </Array>
          </mxGeometry>
        </mxCell>
        <mxCell id="UpJQDBjiTnYH3TPRTOtN-8" value="Validation requise :&lt;div&gt;Coordo + Autres&lt;/div&gt;" style="rounded=0;whiteSpace=wrap;html=1;" vertex="1" parent="1">
          <mxGeometry x="349" y="90" width="120" height="60" as="geometry" />
        </mxCell>
        <mxCell id="UpJQDBjiTnYH3TPRTOtN-33" style="edgeStyle=orthogonalEdgeStyle;rounded=0;orthogonalLoop=1;jettySize=auto;html=1;exitX=0.5;exitY=1;exitDx=0;exitDy=0;" edge="1" parent="1" source="UpJQDBjiTnYH3TPRTOtN-9">
          <mxGeometry relative="1" as="geometry">
            <mxPoint x="220" y="600" as="targetPoint" />
          </mxGeometry>
        </mxCell>
        <mxCell id="UpJQDBjiTnYH3TPRTOtN-34" style="edgeStyle=orthogonalEdgeStyle;rounded=0;orthogonalLoop=1;jettySize=auto;html=1;exitX=1;exitY=0.5;exitDx=0;exitDy=0;entryX=0.5;entryY=0;entryDx=0;entryDy=0;" edge="1" parent="1" source="UpJQDBjiTnYH3TPRTOtN-9" target="UpJQDBjiTnYH3TPRTOtN-10">
          <mxGeometry relative="1" as="geometry">
            <Array as="points">
              <mxPoint x="490" y="600" />
              <mxPoint x="490" y="660" />
              <mxPoint x="430" y="660" />
            </Array>
          </mxGeometry>
        </mxCell>
        <mxCell id="UpJQDBjiTnYH3TPRTOtN-9" value="Abandon ?" style="rhombus;whiteSpace=wrap;html=1;" vertex="1" parent="1">
          <mxGeometry x="344" y="560" width="130" height="80" as="geometry" />
        </mxCell>
        <mxCell id="UpJQDBjiTnYH3TPRTOtN-10" value="Clotûre" style="ellipse;whiteSpace=wrap;html=1;" vertex="1" parent="1">
          <mxGeometry x="370" y="700" width="120" height="80" as="geometry" />
        </mxCell>
        <mxCell id="UpJQDBjiTnYH3TPRTOtN-36" style="edgeStyle=orthogonalEdgeStyle;rounded=0;orthogonalLoop=1;jettySize=auto;html=1;exitX=0.5;exitY=0;exitDx=0;exitDy=0;entryX=0;entryY=0.5;entryDx=0;entryDy=0;" edge="1" parent="1" source="UpJQDBjiTnYH3TPRTOtN-12" target="UpJQDBjiTnYH3TPRTOtN-18">
          <mxGeometry relative="1" as="geometry">
            <mxPoint x="660" y="210" as="targetPoint" />
            <Array as="points">
              <mxPoint x="580" y="220" />
            </Array>
          </mxGeometry>
        </mxCell>
        <mxCell id="UpJQDBjiTnYH3TPRTOtN-61" style="edgeStyle=orthogonalEdgeStyle;rounded=0;orthogonalLoop=1;jettySize=auto;html=1;exitX=1;exitY=0.5;exitDx=0;exitDy=0;" edge="1" parent="1" source="UpJQDBjiTnYH3TPRTOtN-12">
          <mxGeometry relative="1" as="geometry">
            <mxPoint x="740" y="480" as="targetPoint" />
          </mxGeometry>
        </mxCell>
        <mxCell id="UpJQDBjiTnYH3TPRTOtN-12" value="Ajustement requis ?" style="rhombus;whiteSpace=wrap;html=1;" vertex="1" parent="1">
          <mxGeometry x="515" y="240" width="130" height="80" as="geometry" />
        </mxCell>
        <mxCell id="UpJQDBjiTnYH3TPRTOtN-35" style="edgeStyle=orthogonalEdgeStyle;rounded=0;orthogonalLoop=1;jettySize=auto;html=1;entryX=0.5;entryY=1;entryDx=0;entryDy=0;" edge="1" parent="1" source="UpJQDBjiTnYH3TPRTOtN-13" target="UpJQDBjiTnYH3TPRTOtN-12">
          <mxGeometry relative="1" as="geometry" />
        </mxCell>
        <mxCell id="UpJQDBjiTnYH3TPRTOtN-41" style="edgeStyle=orthogonalEdgeStyle;rounded=0;orthogonalLoop=1;jettySize=auto;html=1;exitX=0.5;exitY=1;exitDx=0;exitDy=0;entryX=0.5;entryY=0;entryDx=0;entryDy=0;" edge="1" parent="1" source="UpJQDBjiTnYH3TPRTOtN-13" target="UpJQDBjiTnYH3TPRTOtN-16">
          <mxGeometry relative="1" as="geometry" />
        </mxCell>
        <mxCell id="UpJQDBjiTnYH3TPRTOtN-13" value="Passage en production" style="ellipse;whiteSpace=wrap;html=1;aspect=fixed;" vertex="1" parent="1">
          <mxGeometry x="535" y="360" width="90" height="90" as="geometry" />
        </mxCell>
        <mxCell id="UpJQDBjiTnYH3TPRTOtN-16" value="&#xa;&lt;span style=&quot;color: rgb(0, 0, 0); font-family: Helvetica; font-size: 12px; font-style: normal; font-variant-ligatures: normal; font-variant-caps: normal; font-weight: 400; letter-spacing: normal; orphans: 2; text-align: center; text-indent: 0px; text-transform: none; widows: 2; word-spacing: 0px; -webkit-text-stroke-width: 0px; white-space: normal; background-color: rgb(251, 251, 251); text-decoration-thickness: initial; text-decoration-style: initial; text-decoration-color: initial; display: inline !important; float: none;&quot;&gt;Mettre a diposition une version en lecture pour le commerce + pdf intégré sur yparéo&lt;/span&gt;&#xa;&#xa;" style="rounded=0;whiteSpace=wrap;html=1;" vertex="1" parent="1">
          <mxGeometry x="520" y="475" width="120" height="110" as="geometry" />
        </mxCell>
        <mxCell id="UpJQDBjiTnYH3TPRTOtN-38" style="edgeStyle=orthogonalEdgeStyle;rounded=0;orthogonalLoop=1;jettySize=auto;html=1;exitX=1;exitY=0.5;exitDx=0;exitDy=0;entryX=0;entryY=0.5;entryDx=0;entryDy=0;" edge="1" parent="1" source="UpJQDBjiTnYH3TPRTOtN-17" target="UpJQDBjiTnYH3TPRTOtN-12">
          <mxGeometry relative="1" as="geometry">
            <Array as="points">
              <mxPoint x="780" y="105" />
              <mxPoint x="780" y="340" />
              <mxPoint x="495" y="340" />
              <mxPoint x="495" y="280" />
            </Array>
          </mxGeometry>
        </mxCell>
        <mxCell id="UpJQDBjiTnYH3TPRTOtN-40" style="edgeStyle=orthogonalEdgeStyle;rounded=0;orthogonalLoop=1;jettySize=auto;html=1;exitX=0.5;exitY=0;exitDx=0;exitDy=0;entryX=0.435;entryY=-0.013;entryDx=0;entryDy=0;entryPerimeter=0;" edge="1" parent="1" source="UpJQDBjiTnYH3TPRTOtN-17" target="UpJQDBjiTnYH3TPRTOtN-20">
          <mxGeometry relative="1" as="geometry">
            <mxPoint x="810" y="500" as="targetPoint" />
            <Array as="points">
              <mxPoint x="710" y="45" />
              <mxPoint x="810" y="45" />
              <mxPoint x="810" y="480" />
              <mxPoint x="737" y="480" />
            </Array>
          </mxGeometry>
        </mxCell>
        <mxCell id="UpJQDBjiTnYH3TPRTOtN-17" value="Envoi notif n+1" style="ellipse;whiteSpace=wrap;html=1;aspect=fixed;" vertex="1" parent="1">
          <mxGeometry x="670" y="65" width="80" height="80" as="geometry" />
        </mxCell>
        <mxCell id="UpJQDBjiTnYH3TPRTOtN-37" style="edgeStyle=orthogonalEdgeStyle;rounded=0;orthogonalLoop=1;jettySize=auto;html=1;exitX=0.5;exitY=0;exitDx=0;exitDy=0;entryX=0.5;entryY=1;entryDx=0;entryDy=0;" edge="1" parent="1" source="UpJQDBjiTnYH3TPRTOtN-18" target="UpJQDBjiTnYH3TPRTOtN-17">
          <mxGeometry relative="1" as="geometry" />
        </mxCell>
        <mxCell id="UpJQDBjiTnYH3TPRTOtN-62" style="edgeStyle=orthogonalEdgeStyle;rounded=0;orthogonalLoop=1;jettySize=auto;html=1;exitX=0.5;exitY=1;exitDx=0;exitDy=0;" edge="1" parent="1" source="UpJQDBjiTnYH3TPRTOtN-18">
          <mxGeometry relative="1" as="geometry">
            <mxPoint x="740" y="280" as="targetPoint" />
          </mxGeometry>
        </mxCell>
        <mxCell id="UpJQDBjiTnYH3TPRTOtN-18" value="Validation requise ?" style="rhombus;whiteSpace=wrap;html=1;" vertex="1" parent="1">
          <mxGeometry x="645" y="180" width="130" height="80" as="geometry" />
        </mxCell>
        <mxCell id="UpJQDBjiTnYH3TPRTOtN-20" value="Réalisation de l&#39;action de formation" style="rounded=0;whiteSpace=wrap;html=1;" vertex="1" parent="1">
          <mxGeometry x="685" y="580" width="120" height="60" as="geometry" />
        </mxCell>
        <mxCell id="UpJQDBjiTnYH3TPRTOtN-21" value="" style="endArrow=classic;html=1;rounded=0;entryX=0;entryY=0.5;entryDx=0;entryDy=0;" edge="1" parent="1" target="UpJQDBjiTnYH3TPRTOtN-3">
          <mxGeometry width="50" height="50" relative="1" as="geometry">
            <mxPoint x="100" y="120" as="sourcePoint" />
            <mxPoint x="440" y="180" as="targetPoint" />
          </mxGeometry>
        </mxCell>
        <mxCell id="UpJQDBjiTnYH3TPRTOtN-23" value="" style="endArrow=classic;html=1;rounded=0;exitX=0.5;exitY=1;exitDx=0;exitDy=0;entryX=0.5;entryY=0;entryDx=0;entryDy=0;" edge="1" parent="1" source="UpJQDBjiTnYH3TPRTOtN-4" target="UpJQDBjiTnYH3TPRTOtN-5">
          <mxGeometry width="50" height="50" relative="1" as="geometry">
            <mxPoint x="390" y="430" as="sourcePoint" />
            <mxPoint x="440" y="380" as="targetPoint" />
          </mxGeometry>
        </mxCell>
        <mxCell id="UpJQDBjiTnYH3TPRTOtN-24" value="" style="endArrow=classic;html=1;rounded=0;exitX=0.5;exitY=1;exitDx=0;exitDy=0;entryX=0.5;entryY=0;entryDx=0;entryDy=0;" edge="1" parent="1" source="UpJQDBjiTnYH3TPRTOtN-5" target="UpJQDBjiTnYH3TPRTOtN-6">
          <mxGeometry width="50" height="50" relative="1" as="geometry">
            <mxPoint x="390" y="430" as="sourcePoint" />
            <mxPoint x="440" y="380" as="targetPoint" />
          </mxGeometry>
        </mxCell>
        <mxCell id="UpJQDBjiTnYH3TPRTOtN-25" value="" style="endArrow=classic;html=1;rounded=0;exitX=0.5;exitY=1;exitDx=0;exitDy=0;entryX=1;entryY=0.5;entryDx=0;entryDy=0;" edge="1" parent="1" source="UpJQDBjiTnYH3TPRTOtN-6" target="UpJQDBjiTnYH3TPRTOtN-7">
          <mxGeometry width="50" height="50" relative="1" as="geometry">
            <mxPoint x="390" y="430" as="sourcePoint" />
            <mxPoint x="440" y="380" as="targetPoint" />
            <Array as="points">
              <mxPoint x="225" y="600" />
            </Array>
          </mxGeometry>
        </mxCell>
        <mxCell id="UpJQDBjiTnYH3TPRTOtN-26" value="" style="endArrow=classic;html=1;rounded=0;entryX=0.5;entryY=1;entryDx=0;entryDy=0;entryPerimeter=0;exitX=0;exitY=0.5;exitDx=0;exitDy=0;" edge="1" parent="1" source="UpJQDBjiTnYH3TPRTOtN-7" target="UpJQDBjiTnYH3TPRTOtN-2">
          <mxGeometry width="50" height="50" relative="1" as="geometry">
            <mxPoint x="390" y="430" as="sourcePoint" />
            <mxPoint x="440" y="380" as="targetPoint" />
            <Array as="points">
              <mxPoint x="55" y="600" />
            </Array>
          </mxGeometry>
        </mxCell>
        <mxCell id="UpJQDBjiTnYH3TPRTOtN-27" value="" style="endArrow=classic;html=1;rounded=0;exitX=1;exitY=0.5;exitDx=0;exitDy=0;entryX=0;entryY=0.5;entryDx=0;entryDy=0;" edge="1" parent="1" source="UpJQDBjiTnYH3TPRTOtN-3" target="UpJQDBjiTnYH3TPRTOtN-8">
          <mxGeometry width="50" height="50" relative="1" as="geometry">
            <mxPoint x="390" y="330" as="sourcePoint" />
            <mxPoint x="440" y="280" as="targetPoint" />
          </mxGeometry>
        </mxCell>
        <mxCell id="UpJQDBjiTnYH3TPRTOtN-28" value="" style="endArrow=classic;html=1;rounded=0;exitX=0.5;exitY=1;exitDx=0;exitDy=0;entryX=0.5;entryY=0;entryDx=0;entryDy=0;" edge="1" parent="1" source="UpJQDBjiTnYH3TPRTOtN-8" target="UpJQDBjiTnYH3TPRTOtN-9">
          <mxGeometry width="50" height="50" relative="1" as="geometry">
            <mxPoint x="390" y="330" as="sourcePoint" />
            <mxPoint x="450" y="210" as="targetPoint" />
          </mxGeometry>
        </mxCell>
        <mxCell id="UpJQDBjiTnYH3TPRTOtN-42" value="&lt;br&gt;&lt;span style=&quot;color: rgb(0, 0, 0); font-family: Helvetica; font-size: 12px; font-style: normal; font-variant-ligatures: normal; font-variant-caps: normal; font-weight: 400; letter-spacing: normal; orphans: 2; text-align: center; text-indent: 0px; text-transform: none; widows: 2; word-spacing: 0px; -webkit-text-stroke-width: 0px; white-space: normal; background-color: rgb(251, 251, 251); text-decoration-thickness: initial; text-decoration-style: initial; text-decoration-color: initial; display: inline !important; float: none;&quot;&gt;Éléments modifiables :&lt;/span&gt;&lt;div style=&quot;forced-color-adjust: none; color: rgb(0, 0, 0); font-family: Helvetica; font-size: 12px; font-style: normal; font-variant-ligatures: normal; font-variant-caps: normal; font-weight: 400; letter-spacing: normal; orphans: 2; text-align: center; text-indent: 0px; text-transform: none; widows: 2; word-spacing: 0px; -webkit-text-stroke-width: 0px; white-space: normal; background-color: rgb(251, 251, 251); text-decoration-thickness: initial; text-decoration-style: initial; text-decoration-color: initial;&quot;&gt;Dates réelles&lt;/div&gt;&lt;div style=&quot;forced-color-adjust: none; color: rgb(0, 0, 0); font-family: Helvetica; font-size: 12px; font-style: normal; font-variant-ligatures: normal; font-variant-caps: normal; font-weight: 400; letter-spacing: normal; orphans: 2; text-align: center; text-indent: 0px; text-transform: none; widows: 2; word-spacing: 0px; -webkit-text-stroke-width: 0px; white-space: normal; background-color: rgb(251, 251, 251); text-decoration-thickness: initial; text-decoration-style: initial; text-decoration-color: initial;&quot;&gt;Nbr stagiaires&lt;/div&gt;&lt;div style=&quot;forced-color-adjust: none; color: rgb(0, 0, 0); font-family: Helvetica; font-size: 12px; font-style: normal; font-variant-ligatures: normal; font-variant-caps: normal; font-weight: 400; letter-spacing: normal; orphans: 2; text-align: center; text-indent: 0px; text-transform: none; widows: 2; word-spacing: 0px; -webkit-text-stroke-width: 0px; white-space: normal; background-color: rgb(251, 251, 251); text-decoration-thickness: initial; text-decoration-style: initial; text-decoration-color: initial;&quot;&gt;Formateurs&lt;/div&gt;&lt;div style=&quot;forced-color-adjust: none; color: rgb(0, 0, 0); font-family: Helvetica; font-size: 12px; font-style: normal; font-variant-ligatures: normal; font-variant-caps: normal; font-weight: 400; letter-spacing: normal; orphans: 2; text-align: center; text-indent: 0px; text-transform: none; widows: 2; word-spacing: 0px; -webkit-text-stroke-width: 0px; white-space: normal; background-color: rgb(251, 251, 251); text-decoration-thickness: initial; text-decoration-style: initial; text-decoration-color: initial;&quot;&gt;Durée&lt;/div&gt;&lt;div&gt;&lt;br/&gt;&lt;/div&gt;" style="whiteSpace=wrap;html=1;aspect=fixed;" vertex="1" parent="1">
          <mxGeometry x="510" y="40" width="130" height="130" as="geometry" />
        </mxCell>
        <mxCell id="UpJQDBjiTnYH3TPRTOtN-43" value="" style="shape=flexArrow;endArrow=classic;startArrow=classic;html=1;rounded=0;" edge="1" parent="1">
          <mxGeometry width="100" height="100" relative="1" as="geometry">
            <mxPoint x="10" y="800" as="sourcePoint" />
            <mxPoint x="520" y="800" as="targetPoint" />
          </mxGeometry>
        </mxCell>
        <mxCell id="UpJQDBjiTnYH3TPRTOtN-44" value="Action commerciale" style="text;html=1;align=center;verticalAlign=middle;resizable=0;points=[];autosize=1;strokeColor=none;fillColor=none;" vertex="1" parent="1">
          <mxGeometry x="190" y="808" width="130" height="30" as="geometry" />
        </mxCell>
        <mxCell id="UpJQDBjiTnYH3TPRTOtN-46" value="" style="endArrow=classic;html=1;rounded=0;exitX=0.5;exitY=1;exitDx=0;exitDy=0;entryX=0.5;entryY=0;entryDx=0;entryDy=0;" edge="1" parent="1" source="UpJQDBjiTnYH3TPRTOtN-3" target="UpJQDBjiTnYH3TPRTOtN-4">
          <mxGeometry width="50" height="50" relative="1" as="geometry">
            <mxPoint x="225" y="160" as="sourcePoint" />
            <mxPoint x="190" y="188" as="targetPoint" />
          </mxGeometry>
        </mxCell>
        <mxCell id="UpJQDBjiTnYH3TPRTOtN-47" value="non" style="text;html=1;align=center;verticalAlign=middle;resizable=0;points=[];autosize=1;strokeColor=none;fillColor=none;" vertex="1" parent="1">
          <mxGeometry x="190" y="288" width="40" height="30" as="geometry" />
        </mxCell>
        <mxCell id="UpJQDBjiTnYH3TPRTOtN-48" value="non" style="text;html=1;align=center;verticalAlign=middle;resizable=0;points=[];autosize=1;strokeColor=none;fillColor=none;" vertex="1" parent="1">
          <mxGeometry x="190" y="428" width="40" height="30" as="geometry" />
        </mxCell>
        <mxCell id="UpJQDBjiTnYH3TPRTOtN-50" value="non" style="text;html=1;align=center;verticalAlign=middle;resizable=0;points=[];autosize=1;strokeColor=none;fillColor=none;" vertex="1" parent="1">
          <mxGeometry x="190" y="558" width="40" height="30" as="geometry" />
        </mxCell>
        <mxCell id="UpJQDBjiTnYH3TPRTOtN-51" value="non" style="text;html=1;align=center;verticalAlign=middle;resizable=0;points=[];autosize=1;strokeColor=none;fillColor=none;" vertex="1" parent="1">
          <mxGeometry x="370" y="638" width="40" height="30" as="geometry" />
        </mxCell>
        <mxCell id="UpJQDBjiTnYH3TPRTOtN-52" value="oui" style="text;html=1;align=center;verticalAlign=middle;resizable=0;points=[];autosize=1;strokeColor=none;fillColor=none;" vertex="1" parent="1">
          <mxGeometry x="460" y="570" width="40" height="30" as="geometry" />
        </mxCell>
        <mxCell id="UpJQDBjiTnYH3TPRTOtN-53" value="oui" style="text;html=1;align=center;verticalAlign=middle;resizable=0;points=[];autosize=1;strokeColor=none;fillColor=none;" vertex="1" parent="1">
          <mxGeometry x="280" y="498" width="40" height="30" as="geometry" />
        </mxCell>
        <mxCell id="UpJQDBjiTnYH3TPRTOtN-54" value="oui" style="text;html=1;align=center;verticalAlign=middle;resizable=0;points=[];autosize=1;strokeColor=none;fillColor=none;" vertex="1" parent="1">
          <mxGeometry x="270" y="348" width="40" height="30" as="geometry" />
        </mxCell>
        <mxCell id="UpJQDBjiTnYH3TPRTOtN-55" value="oui" style="text;html=1;align=center;verticalAlign=middle;resizable=0;points=[];autosize=1;strokeColor=none;fillColor=none;" vertex="1" parent="1">
          <mxGeometry x="280" y="218" width="40" height="30" as="geometry" />
        </mxCell>
        <mxCell id="UpJQDBjiTnYH3TPRTOtN-56" value="non" style="text;html=1;align=center;verticalAlign=middle;resizable=0;points=[];autosize=1;strokeColor=none;fillColor=none;" vertex="1" parent="1">
          <mxGeometry x="190" y="158" width="40" height="30" as="geometry" />
        </mxCell>
        <mxCell id="UpJQDBjiTnYH3TPRTOtN-57" value="oui" style="text;html=1;align=center;verticalAlign=middle;resizable=0;points=[];autosize=1;strokeColor=none;fillColor=none;" vertex="1" parent="1">
          <mxGeometry x="280" y="98" width="40" height="30" as="geometry" />
        </mxCell>
        <mxCell id="UpJQDBjiTnYH3TPRTOtN-58" value="oui" style="text;html=1;align=center;verticalAlign=middle;resizable=0;points=[];autosize=1;strokeColor=none;fillColor=none;" vertex="1" parent="1">
          <mxGeometry x="470" y="98" width="40" height="30" as="geometry" />
        </mxCell>
        <mxCell id="UpJQDBjiTnYH3TPRTOtN-59" value="non" style="text;html=1;align=center;verticalAlign=middle;resizable=0;points=[];autosize=1;strokeColor=none;fillColor=none;" vertex="1" parent="1">
          <mxGeometry x="370" y="158" width="40" height="30" as="geometry" />
        </mxCell>
        <mxCell id="UpJQDBjiTnYH3TPRTOtN-63" value="non" style="text;html=1;align=center;verticalAlign=middle;resizable=0;points=[];autosize=1;strokeColor=none;fillColor=none;" vertex="1" parent="1">
          <mxGeometry x="725" y="235" width="40" height="30" as="geometry" />
        </mxCell>
        <mxCell id="UpJQDBjiTnYH3TPRTOtN-64" value="non" style="text;html=1;align=center;verticalAlign=middle;resizable=0;points=[];autosize=1;strokeColor=none;fillColor=none;" vertex="1" parent="1">
          <mxGeometry x="630" y="278" width="40" height="30" as="geometry" />
        </mxCell>
        <mxCell id="UpJQDBjiTnYH3TPRTOtN-65" value="oui" style="text;html=1;align=center;verticalAlign=middle;resizable=0;points=[];autosize=1;strokeColor=none;fillColor=none;" vertex="1" parent="1">
          <mxGeometry x="535" y="218" width="40" height="30" as="geometry" />
        </mxCell>
        <mxCell id="UpJQDBjiTnYH3TPRTOtN-66" value="non" style="text;html=1;align=center;verticalAlign=middle;resizable=0;points=[];autosize=1;strokeColor=none;fillColor=none;" vertex="1" parent="1">
          <mxGeometry x="750" y="80" width="40" height="30" as="geometry" />
        </mxCell>
        <mxCell id="UpJQDBjiTnYH3TPRTOtN-67" value="oui" style="text;html=1;align=center;verticalAlign=middle;resizable=0;points=[];autosize=1;strokeColor=none;fillColor=none;" vertex="1" parent="1">
          <mxGeometry x="670" y="40" width="40" height="30" as="geometry" />
        </mxCell>
        <mxCell id="UpJQDBjiTnYH3TPRTOtN-68" value="" style="verticalLabelPosition=bottom;verticalAlign=top;html=1;shape=mxgraph.basic.flash;rotation=-45;" vertex="1" parent="1">
          <mxGeometry x="100" y="58" width="30" height="40" as="geometry" />
        </mxCell>
      </root>
    </mxGraphModel>
  </diagram>
</mxfile>
